<svg xmlns="http://www.w3.org/2000/svg" version="1.1" xmlns:xlink="http://www.w3.org/1999/xlink" xmlns:svgjs="http://svgjs.dev/svgjs" width="316" height="316"><svg width="316" height="316" viewBox="0 0 316 316" fill="none" xmlns="http://www.w3.org/2000/svg">
<circle cx="158" cy="158" r="158" fill="#AA7B5A"></circle>
<path d="M221.668 170.309C186.99 331.577 34.0579 15.7595 33.7264 239.5" stroke="white" stroke-width="10"></path>
<path d="M221.42 171.5C237.119 89.2888 270.823 155.374 302.134 193" stroke="white" stroke-width="10"></path>
<path d="M231.038 218.602C202.572 372.704 59.2985 79.405 55.2675 265.5" stroke="white" stroke-width="10"></path>
<path d="M230.798 220.334C243.043 154.599 267.22 187.811 292.084 222" stroke="white" stroke-width="10"></path>
<circle cx="158" cy="158" r="145" stroke="white" stroke-width="10"></circle>
<circle cx="158" cy="158" r="154" stroke="#AA7B5A" stroke-width="8"></circle>
<path d="M65.1998 195.755C66.8486 195.343 68.4384 195.396 70.1253 195.307" stroke="white" stroke-width="10" stroke-linecap="square"></path>
<path d="M53.5575 249.936C51.1517 247.551 48.7913 245.082 46.2189 242.871C45.0225 241.843 43.7074 241.123 42.6864 239.911C41.5785 238.595 40.4837 237.336 39.1788 236.204C38.5399 235.65 37.0314 234.99 36.9896 233.965C36.8214 229.844 40.5017 226.314 42.8108 223.318C46.0857 219.07 49.3867 214.719 51.7913 209.91C53.8684 205.755 55.2792 201.192 55.9457 196.601C55.9521 196.556 56.8427 190.856 55.5476 193.217C52.6726 198.46 50.506 204.232 48.3334 209.785C46.6255 214.151 45.7064 218.872 43.7063 223.094C43.2378 224.084 42.9512 225.262 42.4128 226.204C41.2018 228.323 42.7837 221.334 43.1093 218.915C43.8934 213.091 45.4234 208.742 47.7861 203.516C49.3691 200.015 49.5275 195.667 49.5275 191.874C49.5275 191.521 49.6625 188.933 49.428 188.889C47.7697 188.578 44.7623 203.004 43.9551 205.059C42.8142 207.963 41.6335 209.949 41.4923 213.268C41.3953 215.548 41.3683 217.913 41.5172 220.184C41.9168 226.279 44.4668 234.52 48.6319 239.19C49.4951 240.157 50.754 241.546 51.244 242.722C51.4836 243.297 51.5963 243.77 51.9654 242.672C53.893 236.939 54.6184 230.609 55.5476 224.662C56.6113 217.854 57.8899 211.601 60.0503 205.009C61.1799 201.562 62.3754 198.139 63.4833 194.685C63.6317 194.223 63.8303 193.317 63.7818 194.312C63.7214 195.551 63.4441 197.951 63.334 198.914C62.014 210.464 59.5388 222.528 54.9008 233.269C53.3699 236.814 50.4695 230.63 50.1245 229.438C49.2219 226.32 49.482 223.117 49.9753 219.96C50.8681 214.246 55.7867 177.167 51.9405 177.62C49.5627 177.9 47.0921 185.825 46.1443 187.745C44.8147 190.438 43.0095 192.915 42.1142 195.805C41.2668 198.539 41.4674 192.209 41.4674 191.476C41.4674 188.253 43.4135 185.165 44.9999 182.446C46.2342 180.33 47.1216 178.731 49.229 177.396C51.2166 176.137 52.9997 175.513 55.0999 174.411C56.7927 173.522 58.3188 172.372 59.6274 170.978C60.0902 170.485 60.7858 168.904 61.3688 168.515C63.7274 166.943 57.246 172.41 55.0999 174.261C52.2722 176.701 50.4409 176.73 52.0151 172.47C53.3226 168.932 53.6257 166.023 57.9358 165.754C60.3507 165.603 62.079 164.211 64.3788 163.763C66.8151 163.29 70.6401 163.001 73.0359 163.564C76.314 164.336 77.7002 168.044 80.1755 169.883C85.5025 173.84 92.1371 172.221 96.2956 178.043C98.5554 181.206 100.713 185.331 104.604 186.799C107.719 187.975 110.343 189.75 113.137 191.476C113.759 191.86 114.625 192.088 115.202 192.521C116.155 193.235 112.853 192.088 111.719 191.725C109.971 191.165 108.234 190.94 106.943 189.585C105.816 188.403 105.339 186.249 104.853 184.735C104.64 184.071 104.161 179.154 103.709 180.555C103.121 182.377 104.351 186.402 101.818 186.252C99.1375 186.093 96.4964 185.456 93.8079 185.456C87.0013 185.456 81.5891 181.579 77.3893 176.5C76.5784 175.52 75.8598 174.159 75.3495 172.993C75.1915 172.632 82.9939 175.548 84.1558 175.903C87.5635 176.945 88.4177 178.5 90.9223 180.978C93.5052 183.534 96.5817 186.284 99.6788 188.143" stroke="white" stroke-width="10" stroke-linecap="square"></path>
<path d="M77.2898 178.292C75.309 176.66 70.1259 171.705 67.4387 172.122C66.4469 172.276 65.0422 175.032 64.7271 175.555C63.1805 178.123 62.0024 180.809 60.9707 183.615C60.2773 185.501 59.6744 187.387 59.1796 189.337C58.9985 190.051 56.5754 197.423 59.0801 194.561C61.6145 191.664 63.6448 188.366 66.6177 185.854C68.1404 184.568 75.6116 179.929 77.2898 183.565C78.5214 186.234 73.9881 190.2 72.5633 191.675C72.0504 192.206 68.3591 194.839 68.3591 196.054C68.3591 197.627 72.9714 195.967 73.011 195.954C77.8094 194.347 81.9745 191.535 87.141 191.028C93.0298 190.451 95.8201 192.571 100.326 195.332C104.288 197.761 108.695 199.454 113.112 200.681" stroke="white" stroke-width="10" stroke-linecap="square"></path>
<path d="M85.3499 197.994C89.1823 198.201 93.1525 199.343 96.5444 201.128C98.7071 202.267 101.066 203.136 103.41 203.815C107.917 205.12 111.696 206.876 115.874 208.965C126.717 214.386 136.174 221.723 146.646 227.846C152.842 231.469 159.064 235.082 164.955 239.19C166.859 240.517 168.683 241.593 170.876 242.324" stroke="white" stroke-width="10" stroke-linecap="square"></path>
<path d="M63.4086 179.635C73.1307 182.521 82.4814 187.787 91.6188 192.173" stroke="white" stroke-width="10" stroke-linecap="square"></path>
<path d="M112.217 197.098C129.212 211.3 147.107 223.627 165.502 235.906C172.587 240.635 178.959 245.388 187.444 246.802" stroke="white" stroke-width="10" stroke-linecap="square"></path>
<path d="M118.486 193.516C123.72 198.295 128.409 203.427 134.009 207.82C139.954 212.485 146.244 216.719 152.517 220.93C158.691 225.075 165.316 228.441 171.498 232.647C178.736 237.572 185.877 241.354 194.16 244.115" stroke="white" stroke-width="10" stroke-linecap="square"></path>
<path d="M136.397 205.606C142.006 209.219 147.273 213.336 152.815 217.049C159.799 221.73 167.252 225.252 174.806 228.891C181.888 232.302 189.447 236.572 197.295 237.399" stroke="white" stroke-width="10" stroke-linecap="square"></path>
<path d="M145.352 232.025C151.456 236.99 157.203 242.868 164.507 246.055C168.179 247.658 172.333 248.164 175.901 249.936C185.056 254.484 193.577 260.481 204.26 260.21C207.774 260.121 209.935 259.933 211.574 256.553C212.475 254.695 212.898 252.784 213.514 250.857C215.175 245.666 217.919 240.996 219.336 235.657C221.432 227.759 223.273 220.592 226.848 213.218" stroke="white" stroke-width="10" stroke-linecap="square"></path>
<path d="M125.65 219.935C133.807 222.881 141.459 227.503 149.83 229.786" stroke="white" stroke-width="10" stroke-linecap="square"></path>
<path d="M186.1 252.623C194.346 255.268 214.765 262.399 215.206 247.847C215.261 246.026 215.714 244.48 215.903 242.672C216.641 235.591 216.371 228.707 218.39 221.776C219.645 217.468 221.159 213.271 223.565 209.487C224.934 207.333 226.311 205.247 227.246 202.87C229.675 196.699 229.73 190.25 229.983 183.715C230.164 179.015 231.807 174.976 233.565 170.679" stroke="white" stroke-width="10" stroke-linecap="square"></path>
<path d="M189.235 250.832C193.974 250.564 197.115 249.357 200.902 246.503C203.506 244.541 204.012 244.416 204.012 247.623C204.012 249.317 204.13 250.274 205.405 251.504C205.953 252.032 207.673 254.2 208.241 252.822C208.68 251.755 208.678 250.07 208.788 249.041C209.253 244.695 209.733 240.351 210.206 236.005C210.468 233.596 210.441 231.012 211.002 228.642C211.809 225.233 212.147 221.639 213.291 218.318C214.36 215.211 216.305 212.458 217.644 209.462C218.986 206.458 220.774 203.557 222.022 200.581C222.76 198.822 224.125 197.405 224.808 195.606C226.216 191.902 226.569 187.974 226.848 184.063C227.081 180.803 230.508 178.829 232.371 176.401C234.282 173.911 235.355 170.681 237.545 168.44C239.718 166.219 241.96 164.962 244.76 163.963" stroke="white" stroke-width="10" stroke-linecap="square"></path>
<path d="M193.713 245.458C197.765 240.922 201.732 236.217 206.25 232.125C207.756 230.761 209.255 229.531 211.176 228.891" stroke="white" stroke-width="10" stroke-linecap="square"></path>
<path d="M172.667 223.517C174.413 229.629 184.596 230.753 189.533 231.154C198.359 231.872 205.818 233.267 214.311 230.234" stroke="white" stroke-width="10" stroke-linecap="square"></path>
<path d="M178.488 228.891C180.183 227.68 183.577 227.879 185.454 227.746C190.935 227.36 196.503 227.318 201.723 225.358C207.84 223.061 212.281 217.901 217.445 214.114" stroke="white" stroke-width="10" stroke-linecap="square"></path>
<path d="M177.593 225.756C184.442 224.9 191.228 222.664 198.016 221.378C201.173 220.78 204.242 220.193 207.146 218.741C209.184 217.722 211.427 217.1 213.216 215.681C214.688 214.514 216.223 213.854 217.296 212.223C217.786 211.479 220.609 207.411 220.032 206.402C219.879 206.135 219.438 206.617 219.211 206.825C218.514 207.462 216.948 209.163 216.425 209.686C214.096 212.015 211.519 213.31 208.937 215.209C207.406 216.334 208.142 216.327 209.534 215.308C212.606 213.059 214.752 210.445 216.45 207.049C220.208 199.532 226.195 193.249 229.535 185.456" stroke="white" stroke-width="10" stroke-linecap="square"></path>
<path d="M225.505 183.665C223.425 181.585 227.309 173.229 228.042 171.326C229.434 167.715 230.979 163.14 233.366 159.958C235.253 157.441 237.211 155.033 238.491 152.121C239.105 150.723 239.69 148.869 240.73 147.693C245.035 142.826 251.398 146.842 255.457 149.833C263.618 155.847 270.807 163.675 276.651 171.923C278.961 175.184 280.053 178.313 281.478 181.874" stroke="white" stroke-width="10" stroke-linecap="square"></path>
<path d="M229.087 165.754C226.052 156.267 236.098 146.949 243.565 142.967C252.924 137.975 260.36 146.355 264.462 154.559" stroke="white" stroke-width="10" stroke-linecap="square"></path>
<path d="M249.237 143.813C247.208 143.16 243.27 140.904 241.6 142.992C240.314 144.599 239.386 146.243 239.386 148.29" stroke="white" stroke-width="10" stroke-linecap="square"></path>
<path d="M241.625 154.111C247.737 156.192 252.549 161.328 257.845 164.858C261.189 167.088 264.254 169.226 267.348 171.774C270.112 174.05 272.682 176.522 275.457 178.789C277.771 180.679 279.609 183.271 281.925 185.008" stroke="white" stroke-width="10" stroke-linecap="square"></path>
<path d="M244.76 149.186C249.52 154.824 254.121 160.755 259.536 165.754" stroke="white" stroke-width="10" stroke-linecap="square"></path>
<path d="M234.013 160.38C248.207 168.771 262.53 176.689 277 184.56" stroke="white" stroke-width="10" stroke-linecap="square"></path>
<path d="M235.804 176.053C241.458 177.921 247.128 179.684 252.82 181.426" stroke="white" stroke-width="10" stroke-linecap="square"></path>
<path d="M230.431 196.203C237.825 187.638 245.465 178.914 255.059 172.918" stroke="white" stroke-width="10" stroke-linecap="square"></path>
<path d="M235.804 192.62C232.755 184.126 240.4 176.79 248.591 176.475C252.069 176.342 244.417 173.853 243.764 173.615C242.629 173.199 241.625 172.45 241.625 173.814" stroke="white" stroke-width="10" stroke-linecap="square"></path>
<path d="M261.775 185.904C268.095 189.888 274.523 194.308 279.836 199.586C283.134 202.863 286.246 206.344 289.538 209.636" stroke="white" stroke-width="10" stroke-linecap="square"></path>
<path d="M275.209 187.247C278.151 191.38 281.718 196.544 285.707 199.735C286.795 200.606 288.096 201.576 289.538 201.576" stroke="white" stroke-width="10" stroke-linecap="square"></path>
<path d="M289.538 201.576C290.589 201.445 290.702 201.38 290.831 200.133C291.388 194.774 291.27 189.338 291.752 183.964C292.062 180.496 292.693 178.532 290.582 182.272C289.025 185.031 288.808 187.294 288.144 190.282C287.64 192.552 286.851 194.758 286.851 197.098" stroke="white" stroke-width="10" stroke-linecap="square"></path>
</svg><style>@media (prefers-color-scheme: light) { :root { filter: none; } }
@media (prefers-color-scheme: dark) { :root { filter: none; } }
</style></svg>