<?xml version="1.0" standalone="no"?>
<!DOCTYPE svg PUBLIC "-//W3C//DTD SVG 20010904//EN"
 "http://www.w3.org/TR/2001/REC-SVG-20010904/DTD/svg10.dtd">
<svg version="1.0" xmlns="http://www.w3.org/2000/svg"
 width="316.000000pt" height="316.000000pt" viewBox="0 0 316.000000 316.000000"
 preserveAspectRatio="xMidYMid meet">
<metadata>
Created by potrace 1.14, written by Peter Selinger 2001-2017
</metadata>
<g transform="translate(0.000000,316.000000) scale(0.100000,-0.100000)"
fill="#000000" stroke="none">
<path d="M1410 3149 c-195 -23 -359 -71 -535 -159 -156 -78 -285 -171 -409
-296 -269 -268 -420 -595 -458 -986 -26 -280 30 -566 162 -833 78 -156 171
-284 296 -409 268 -269 595 -420 987 -458 279 -26 565 30 832 162 156 78 284
171 409 296 269 268 420 595 458 987 26 279 -30 565 -162 832 -78 156 -171
284 -296 409 -338 339 -817 508 -1284 455z m468 -98 c611 -133 1064 -597 1178
-1206 28 -146 25 -423 -4 -558 -135 -618 -596 -1069 -1207 -1183 -146 -28
-423 -25 -558 4 -618 135 -1069 596 -1183 1207 -28 146 -25 423 4 558 65 297
200 552 402 757 231 235 514 379 855 435 125 20 387 13 513 -14z"/>
<path d="M1402 2969 c-522 -71 -967 -430 -1141 -922 -108 -306 -104 -670 10
-962 24 -59 24 -60 27 -25 1 19 9 82 18 140 48 316 171 468 362 446 128 -15
257 -86 575 -314 320 -229 435 -290 560 -300 88 -6 141 14 200 76 73 79 111
173 171 427 61 257 145 365 270 351 106 -12 202 -97 398 -353 l113 -148 8 60
c5 33 6 116 3 185 -9 218 -50 379 -147 575 -73 148 -158 262 -286 385 -195
188 -417 305 -681 360 -114 24 -350 34 -460 19z"/>
<path d="M2467 1252 c-38 -40 -70 -126 -106 -284 -51 -227 -90 -325 -164 -405
-63 -69 -116 -95 -201 -101 -163 -10 -304 63 -696 364 -283 216 -415 287 -507
269 -95 -18 -165 -181 -180 -425 l-6 -96 59 -52 c169 -151 394 -262 637 -314
136 -29 398 -31 531 -5 207 42 423 136 576 251 156 117 330 319 408 473 l22
41 -56 74 c-69 89 -180 204 -216 224 -41 21 -71 17 -101 -14z"/>
</g>
</svg>
